<svg width="28" height="32" viewBox="0 0 28 32" fill="none" xmlns="http://www.w3.org/2000/svg">
<g clip-path="url(#clip0_6_174)">
<path d="M16.0937 4.18125L14.7062 2.79375C14.1187 2.20625 13.1687 2.20625 12.5874 2.79375L0.437451 14.9375C-0.150049 15.525 -0.150049 16.475 0.437451 17.0563L12.5874 29.2063C13.1749 29.7938 14.1249 29.7938 14.7062 29.2063L16.0937 27.8188C16.6874 27.225 16.6749 26.2563 16.0687 25.675L8.53745 18.5H26.4999C27.3312 18.5 27.9999 17.8313 27.9999 17V15C27.9999 14.1688 27.3312 13.5 26.4999 13.5H8.53745L16.0687 6.325C16.6812 5.74375 16.6937 4.775 16.0937 4.18125Z" fill="white"/>
</g>
<defs>
<clipPath id="clip0_6_174">
<rect width="28" height="32" fill="white" transform="matrix(1 0 0 -1 0 32)"/>
</clipPath>
</defs>
</svg>
