<svg width="28" height="28" viewBox="0 0 28 28" fill="none" xmlns="http://www.w3.org/2000/svg">
<path d="M25.375 1.75H2.625C1.17578 1.75 0 2.92578 0 4.375V23.625C0 25.0742 1.17578 26.25 2.625 26.25H25.375C26.8242 26.25 28 25.0742 28 23.625V4.375C28 2.92578 26.8242 1.75 25.375 1.75ZM20.8031 17.6367C21.0656 17.8992 21.0656 18.3258 20.8031 18.5883L18.5883 20.8031C18.3258 21.0656 17.8992 21.0656 17.6367 20.8031L14 17.1336L10.3633 20.8031C10.1008 21.0656 9.67422 21.0656 9.41172 20.8031L7.19688 18.5883C6.93438 18.3258 6.93438 17.8992 7.19688 17.6367L10.8664 14L7.19688 10.3633C6.93438 10.1008 6.93438 9.67422 7.19688 9.41172L9.41172 7.19688C9.67422 6.93438 10.1008 6.93438 10.3633 7.19688L14 10.8664L17.6367 7.19688C17.8992 6.93438 18.3258 6.93438 18.5883 7.19688L20.8031 9.41172C21.0656 9.67422 21.0656 10.1008 20.8031 10.3633L17.1336 14L20.8031 17.6367Z" fill="white"/>
</svg>
